<svg width="20" height="17" viewBox="0 0 20 17" fill="none" xmlns="http://www.w3.org/2000/svg">
<path d="M17.8187 0.282715C18.7836 0.282715 19.6 1.09912 19.6 2.06396V10.9702C19.6 14.2729 16.9281 16.9077 13.6625 16.9077H13.3656C12.8461 16.9077 12.475 16.5366 12.475 16.0171V14.2358C12.475 13.7534 12.8461 13.3452 13.3656 13.3452H13.6625C14.9613 13.3452 16.0375 12.3062 16.0375 10.9702V8.59521H13.0687C12.0668 8.59521 11.2875 7.81592 11.2875 6.81396V2.06396C11.2875 1.09912 12.0668 0.282715 13.0687 0.282715H17.8187ZM7.13123 0.282715C8.09607 0.282715 8.91248 1.09912 8.91248 2.06396V10.9702C8.91248 14.2729 6.2406 16.9077 2.97498 16.9077H2.6781C2.15857 16.9077 1.78748 16.5366 1.78748 16.0171V14.2358C1.78748 13.7534 2.15857 13.3452 2.6781 13.3452H2.97498C4.2738 13.3452 5.34998 12.3062 5.34998 10.9702V8.59521H2.38123C1.37927 8.59521 0.599976 7.81592 0.599976 6.81396V2.06396C0.599976 1.09912 1.37927 0.282715 2.38123 0.282715H7.13123Z" fill="#660708"/>
</svg>
